<?xml version="1.0" encoding="UTF-8"?>
<svg xmlns="http://www.w3.org/2000/svg" xmlns:xlink="http://www.w3.org/1999/xlink" width="25px" height="25px" viewBox="0 0 25 25" version="1.1">
<g id="surface1">
<path style=" stroke:none;fill-rule:nonzero;fill:rgb(0%,0%,0%);fill-opacity:1;" d="M 22.171875 9.59375 L 22.160156 9.546875 C 22.152344 9.46875 22.132812 9.394531 22.105469 9.316406 L 22.082031 9.238281 L 22.0625 9.199219 C 22.019531 9.109375 21.972656 9.03125 21.917969 8.957031 L 21.90625 8.929688 L 13.328125 0.355469 C 13.226562 0.257812 13.109375 0.175781 12.964844 0.109375 L 12.859375 0.0703125 C 12.785156 0.046875 12.710938 0.0273438 12.625 0.015625 L 12.570312 0 L 6.855469 0 C 4.632812 0 2.820312 1.808594 2.820312 4.03125 L 2.820312 20.964844 C 2.820312 23.1875 4.632812 24.996094 6.855469 24.996094 L 18.144531 24.996094 C 20.367188 24.996094 22.175781 23.1875 22.175781 20.964844 L 22.175781 9.707031 Z M 19.757812 20.964844 C 19.757812 21.851562 19.03125 22.574219 18.144531 22.574219 L 6.855469 22.574219 C 5.964844 22.574219 5.242188 21.851562 5.242188 20.964844 L 5.242188 4.03125 C 5.242188 3.140625 5.964844 2.417969 6.855469 2.417969 L 11.257812 2.417969 L 11.257812 6.882812 C 11.257812 9.105469 13.066406 10.914062 15.289062 10.914062 L 19.757812 10.914062 Z M 19.757812 20.964844 "/>
<path style=" stroke:none;fill-rule:nonzero;fill:rgb(0%,0%,0%);fill-opacity:1;" d="M 5.917969 13.753906 C 5.917969 14.273438 6.339844 14.695312 6.859375 14.695312 L 17.539062 14.695312 C 18.0625 14.695312 18.480469 14.273438 18.480469 13.753906 C 18.480469 13.234375 18.0625 12.8125 17.539062 12.8125 L 6.859375 12.8125 C 6.339844 12.8125 5.917969 13.234375 5.917969 13.753906 Z M 5.917969 13.753906 "/>
<path style=" stroke:none;fill-rule:nonzero;fill:rgb(0%,0%,0%);fill-opacity:1;" d="M 17.539062 15.324219 L 6.859375 15.324219 C 6.339844 15.324219 5.917969 15.746094 5.917969 16.265625 C 5.917969 16.789062 6.339844 17.210938 6.859375 17.210938 L 17.539062 17.210938 C 18.0625 17.210938 18.480469 16.789062 18.480469 16.265625 C 18.480469 15.746094 18.0625 15.324219 17.539062 15.324219 Z M 17.539062 15.324219 "/>
<path style=" stroke:none;fill-rule:nonzero;fill:rgb(0%,0%,0%);fill-opacity:1;" d="M 17.539062 17.839844 L 6.859375 17.839844 C 6.339844 17.839844 5.917969 18.257812 5.917969 18.78125 C 5.917969 19.300781 6.339844 19.722656 6.859375 19.722656 L 17.539062 19.722656 C 18.0625 19.722656 18.480469 19.300781 18.480469 18.78125 C 18.480469 18.261719 18.0625 17.839844 17.539062 17.839844 Z M 17.539062 17.839844 "/>
</g>
</svg>
